{
	"asset":{
		"generator":"Khronos glTF Blender I/O v3.5.30",
		"version":"2.0"
	},
	"extensionsUsed":[
		"KHR_materials_specular",
		"KHR_materials_ior"
	],
	"scene":0,
	"scenes":[
		{
			"name":"Scene",
			"nodes":[
				4
			]
		}
	],
	"nodes":[
		{
			"name":"magazine",
			"translation":[
				-2.9469340320117097e-16,
				1.327181100845337,
				-4.924213886260986
			]
		},
		{
			"name":"body",
			"rotation":[
				0.0023161733988672495,
				0,
				0,
				0.9999973177909851
			],
			"translation":[
				-8.991288616422288e-16,
				4.3214006423950195,
				0.007442474365234375
			]
		},
		{
			"children":[
				0,
				1
			],
			"name":"root",
			"translation":[
				9.59543804242497e-16,
				-4.321401119232178,
				-0.007442474365234375
			]
		},
		{
			"mesh":0,
			"name":"Cube.001",
			"skin":0
		},
		{
			"children":[
				3,
				2
			],
			"name":"Armature",
			"scale":[
				0.19999998807907104,
				0.19999998807907104,
				0.19999998807907104
			],
			"translation":[
				0,
				0,
				0.25
			]
		}
	],
	"animations":[
		{
			"channels":[
				{
					"sampler":0,
					"target":{
						"node":2,
						"path":"translation"
					}
				},
				{
					"sampler":1,
					"target":{
						"node":2,
						"path":"rotation"
					}
				},
				{
					"sampler":2,
					"target":{
						"node":2,
						"path":"scale"
					}
				},
				{
					"sampler":3,
					"target":{
						"node":0,
						"path":"translation"
					}
				},
				{
					"sampler":4,
					"target":{
						"node":0,
						"path":"rotation"
					}
				},
				{
					"sampler":5,
					"target":{
						"node":0,
						"path":"scale"
					}
				},
				{
					"sampler":6,
					"target":{
						"node":1,
						"path":"translation"
					}
				},
				{
					"sampler":7,
					"target":{
						"node":1,
						"path":"rotation"
					}
				},
				{
					"sampler":8,
					"target":{
						"node":1,
						"path":"scale"
					}
				}
			],
			"name":"Idle_root",
			"samplers":[
				{
					"input":13,
					"interpolation":"LINEAR",
					"output":14
				},
				{
					"input":13,
					"interpolation":"LINEAR",
					"output":15
				},
				{
					"input":13,
					"interpolation":"LINEAR",
					"output":16
				},
				{
					"input":13,
					"interpolation":"LINEAR",
					"output":17
				},
				{
					"input":13,
					"interpolation":"LINEAR",
					"output":18
				},
				{
					"input":13,
					"interpolation":"LINEAR",
					"output":19
				},
				{
					"input":13,
					"interpolation":"LINEAR",
					"output":20
				},
				{
					"input":13,
					"interpolation":"LINEAR",
					"output":21
				},
				{
					"input":13,
					"interpolation":"LINEAR",
					"output":22
				}
			]
		},
		{
			"channels":[
				{
					"sampler":0,
					"target":{
						"node":2,
						"path":"translation"
					}
				},
				{
					"sampler":1,
					"target":{
						"node":2,
						"path":"rotation"
					}
				},
				{
					"sampler":2,
					"target":{
						"node":2,
						"path":"scale"
					}
				},
				{
					"sampler":3,
					"target":{
						"node":0,
						"path":"translation"
					}
				},
				{
					"sampler":4,
					"target":{
						"node":0,
						"path":"rotation"
					}
				},
				{
					"sampler":5,
					"target":{
						"node":0,
						"path":"scale"
					}
				},
				{
					"sampler":6,
					"target":{
						"node":1,
						"path":"translation"
					}
				},
				{
					"sampler":7,
					"target":{
						"node":1,
						"path":"rotation"
					}
				},
				{
					"sampler":8,
					"target":{
						"node":1,
						"path":"scale"
					}
				}
			],
			"name":"Shoot_root",
			"samplers":[
				{
					"input":13,
					"interpolation":"LINEAR",
					"output":23
				},
				{
					"input":13,
					"interpolation":"LINEAR",
					"output":24
				},
				{
					"input":13,
					"interpolation":"LINEAR",
					"output":25
				},
				{
					"input":13,
					"interpolation":"LINEAR",
					"output":26
				},
				{
					"input":13,
					"interpolation":"LINEAR",
					"output":27
				},
				{
					"input":13,
					"interpolation":"LINEAR",
					"output":28
				},
				{
					"input":13,
					"interpolation":"LINEAR",
					"output":29
				},
				{
					"input":13,
					"interpolation":"LINEAR",
					"output":30
				},
				{
					"input":13,
					"interpolation":"LINEAR",
					"output":31
				}
			]
		}
	],
	"materials":[
		{
			"doubleSided":true,
			"extensions":{
				"KHR_materials_specular":{
					"specularColorFactor":[
						0,
						0,
						0
					]
				},
				"KHR_materials_ior":{
					"ior":1.4500000476837158
				}
			},
			"name":"Material.001",
			"pbrMetallicRoughness":{
				"baseColorFactor":[
					0.06997308135032654,
					0.037639208137989044,
					0.025045443326234818,
					1
				],
				"metallicFactor":0
			}
		},
		{
			"doubleSided":true,
			"extensions":{
				"KHR_materials_specular":{
					"specularColorFactor":[
						0,
						0,
						0
					]
				},
				"KHR_materials_ior":{
					"ior":1.4500000476837158
				}
			},
			"name":"Material.002",
			"pbrMetallicRoughness":{
				"baseColorFactor":[
					0.09850256145000458,
					0.09850256145000458,
					0.09850256145000458,
					1
				],
				"roughnessFactor":0.43939393758773804
			}
		}
	],
	"meshes":[
		{
			"name":"Cube.001",
			"primitives":[
				{
					"attributes":{
						"POSITION":0,
						"TEXCOORD_0":1,
						"NORMAL":2,
						"JOINTS_0":3,
						"WEIGHTS_0":4
					},
					"indices":5,
					"material":0
				},
				{
					"attributes":{
						"POSITION":6,
						"TEXCOORD_0":7,
						"NORMAL":8,
						"JOINTS_0":9,
						"WEIGHTS_0":10
					},
					"indices":11,
					"material":1
				}
			]
		}
	],
	"skins":[
		{
			"inverseBindMatrices":12,
			"joints":[
				2,
				0,
				1
			],
			"name":"Armature"
		}
	],
	"accessors":[
		{
			"bufferView":0,
			"componentType":5126,
			"count":260,
			"max":[
				0.1426408439874649,
				0.7803643941879272,
				1.683570146560669
			],
			"min":[
				-0.14264051616191864,
				-0.18566027283668518,
				-1.8018300533294678
			],
			"type":"VEC3"
		},
		{
			"bufferView":1,
			"componentType":5126,
			"count":260,
			"type":"VEC2"
		},
		{
			"bufferView":2,
			"componentType":5126,
			"count":260,
			"type":"VEC3"
		},
		{
			"bufferView":3,
			"componentType":5121,
			"count":260,
			"type":"VEC4"
		},
		{
			"bufferView":4,
			"componentType":5126,
			"count":260,
			"type":"VEC4"
		},
		{
			"bufferView":5,
			"componentType":5123,
			"count":660,
			"type":"SCALAR"
		},
		{
			"bufferView":6,
			"componentType":5126,
			"count":1862,
			"max":[
				0.1747465580701828,
				0.8366647958755493,
				0.5193784832954407
			],
			"min":[
				-0.17474612593650818,
				-1.0234687328338623,
				-2.9138295650482178
			],
			"type":"VEC3"
		},
		{
			"bufferView":7,
			"componentType":5126,
			"count":1862,
			"type":"VEC2"
		},
		{
			"bufferView":8,
			"componentType":5126,
			"count":1862,
			"type":"VEC3"
		},
		{
			"bufferView":9,
			"componentType":5121,
			"count":1862,
			"type":"VEC4"
		},
		{
			"bufferView":10,
			"componentType":5126,
			"count":1862,
			"type":"VEC4"
		},
		{
			"bufferView":11,
			"componentType":5123,
			"count":5058,
			"type":"SCALAR"
		},
		{
			"bufferView":12,
			"componentType":5126,
			"count":3,
			"type":"MAT4"
		},
		{
			"bufferView":13,
			"componentType":5126,
			"count":13,
			"max":[
				0.1
			],
			"min":[
				0
			],
			"type":"SCALAR"
		},
		{
			"bufferView":14,
			"componentType":5126,
			"count":13,
			"type":"VEC3"
		},
		{
			"bufferView":15,
			"componentType":5126,
			"count":13,
			"type":"VEC4"
		},
		{
			"bufferView":16,
			"componentType":5126,
			"count":13,
			"type":"VEC3"
		},
		{
			"bufferView":17,
			"componentType":5126,
			"count":13,
			"type":"VEC3"
		},
		{
			"bufferView":18,
			"componentType":5126,
			"count":13,
			"type":"VEC4"
		},
		{
			"bufferView":19,
			"componentType":5126,
			"count":13,
			"type":"VEC3"
		},
		{
			"bufferView":20,
			"componentType":5126,
			"count":13,
			"type":"VEC3"
		},
		{
			"bufferView":21,
			"componentType":5126,
			"count":13,
			"type":"VEC4"
		},
		{
			"bufferView":22,
			"componentType":5126,
			"count":13,
			"type":"VEC3"
		},
		{
			"bufferView":23,
			"componentType":5126,
			"count":13,
			"type":"VEC3"
		},
		{
			"bufferView":24,
			"componentType":5126,
			"count":13,
			"type":"VEC4"
		},
		{
			"bufferView":25,
			"componentType":5126,
			"count":13,
			"type":"VEC3"
		},
		{
			"bufferView":26,
			"componentType":5126,
			"count":13,
			"type":"VEC3"
		},
		{
			"bufferView":27,
			"componentType":5126,
			"count":13,
			"type":"VEC4"
		},
		{
			"bufferView":28,
			"componentType":5126,
			"count":13,
			"type":"VEC3"
		},
		{
			"bufferView":29,
			"componentType":5126,
			"count":13,
			"type":"VEC3"
		},
		{
			"bufferView":30,
			"componentType":5126,
			"count":13,
			"type":"VEC4"
		},
		{
			"bufferView":31,
			"componentType":5126,
			"count":13,
			"type":"VEC3"
		}
	],
	"bufferViews":[
		{
			"buffer":0,
			"byteLength":3120,
			"byteOffset":0,
			"target":34962
		},
		{
			"buffer":0,
			"byteLength":2080,
			"byteOffset":3120,
			"target":34962
		},
		{
			"buffer":0,
			"byteLength":3120,
			"byteOffset":5200,
			"target":34962
		},
		{
			"buffer":0,
			"byteLength":1040,
			"byteOffset":8320,
			"target":34962
		},
		{
			"buffer":0,
			"byteLength":4160,
			"byteOffset":9360,
			"target":34962
		},
		{
			"buffer":0,
			"byteLength":1320,
			"byteOffset":13520,
			"target":34963
		},
		{
			"buffer":0,
			"byteLength":22344,
			"byteOffset":14840,
			"target":34962
		},
		{
			"buffer":0,
			"byteLength":14896,
			"byteOffset":37184,
			"target":34962
		},
		{
			"buffer":0,
			"byteLength":22344,
			"byteOffset":52080,
			"target":34962
		},
		{
			"buffer":0,
			"byteLength":7448,
			"byteOffset":74424,
			"target":34962
		},
		{
			"buffer":0,
			"byteLength":29792,
			"byteOffset":81872,
			"target":34962
		},
		{
			"buffer":0,
			"byteLength":10116,
			"byteOffset":111664,
			"target":34963
		},
		{
			"buffer":0,
			"byteLength":192,
			"byteOffset":121780
		},
		{
			"buffer":0,
			"byteLength":52,
			"byteOffset":121972
		},
		{
			"buffer":0,
			"byteLength":156,
			"byteOffset":122024
		},
		{
			"buffer":0,
			"byteLength":208,
			"byteOffset":122180
		},
		{
			"buffer":0,
			"byteLength":156,
			"byteOffset":122388
		},
		{
			"buffer":0,
			"byteLength":156,
			"byteOffset":122544
		},
		{
			"buffer":0,
			"byteLength":208,
			"byteOffset":122700
		},
		{
			"buffer":0,
			"byteLength":156,
			"byteOffset":122908
		},
		{
			"buffer":0,
			"byteLength":156,
			"byteOffset":123064
		},
		{
			"buffer":0,
			"byteLength":208,
			"byteOffset":123220
		},
		{
			"buffer":0,
			"byteLength":156,
			"byteOffset":123428
		},
		{
			"buffer":0,
			"byteLength":156,
			"byteOffset":123584
		},
		{
			"buffer":0,
			"byteLength":208,
			"byteOffset":123740
		},
		{
			"buffer":0,
			"byteLength":156,
			"byteOffset":123948
		},
		{
			"buffer":0,
			"byteLength":156,
			"byteOffset":124104
		},
		{
			"buffer":0,
			"byteLength":208,
			"byteOffset":124260
		},
		{
			"buffer":0,
			"byteLength":156,
			"byteOffset":124468
		},
		{
			"buffer":0,
			"byteLength":156,
			"byteOffset":124624
		},
		{
			"buffer":0,
			"byteLength":208,
			"byteOffset":124780
		},
		{
			"buffer":0,
			"byteLength":156,
			"byteOffset":124988
		}
	],
	"buffers":[
		{
			"byteLength":125144,
			"uri":"data:application/octet-stream;base64,"
		}
	]
}
